<svg xmlns="http://www.w3.org/2000/svg" width="720" height="430" viewBox="0 0 720 430"><title>UpHub system overview</title><desc>A bilingual React Native and Expo application for local businesses, events and services, connected to a Next.js API and cloud media.</desc><defs><linearGradient id="b" x2="1" y2="1"><stop stop-color="#353236"/><stop offset="1" stop-color="#242a37"/></linearGradient><marker id="a" markerWidth="6" markerHeight="6" refX="5" refY="3" orient="auto"><path d="M0 0L6 3L0 6" fill="none" stroke="#baa78a"/></marker></defs><rect width="720" height="430" fill="url(#b)"/><g font-family="Arial, sans-serif"><text x="43" y="52" fill="#c5b49d" font-size="13" letter-spacing="2">LOCAL DISCOVERY / GREATER TORONTO</text><text x="40" y="118" fill="#f0e2cd" font-size="58" font-weight="600" letter-spacing="-2">UpHub<tspan fill="#dfba7e">.</tspan></text><text x="44" y="152" fill="#bcae9e" font-size="16">Your community. A little closer.</text><rect x="43" y="199" width="184" height="48" rx="6" fill="#403c3e" stroke="#685c52"/><text x="63" y="228" fill="#e0d4c6" font-size="16">Businesses &amp; services</text><rect x="43" y="259" width="184" height="48" rx="6" fill="#403c3e" stroke="#685c52"/><text x="63" y="288" fill="#e0d4c6" font-size="16">Events &amp; promotions</text><path d="M238 223H254V250H280M238 283H254V250" fill="none" stroke="#baa78a"/><path d="M275 250H291" stroke="#baa78a" marker-end="url(#a)"/><rect x="307" y="203" width="165" height="98" rx="8" fill="#38353b" stroke="#a08663"/><text x="328" y="237" fill="#f0e0c7" font-size="19" font-weight="600">Bilingual app</text><text x="328" y="265" fill="#c2b097" font-size="14">React Native + Expo</text><text x="328" y="285" fill="#c2b097" font-size="12">OTP · profiles · maps</text><path d="M483 250H517" stroke="#baa78a" marker-end="url(#a)"/><rect x="533" y="203" width="145" height="98" rx="8" fill="#33333e" stroke="#75675b"/><text x="553" y="237" fill="#e7d8c3" font-size="18" font-weight="600">Next.js API</text><text x="553" y="265" fill="#c2b097" font-size="13">MongoDB</text><text x="553" y="285" fill="#c2b097" font-size="13">Cloud media</text><text x="43" y="354" fill="#c3b093" font-size="13">INDEPENDENT PRODUCT · IN DEVELOPMENT</text></g></svg>
